<svg id="Capa_1" enable-background="new 0 0 512 512" height="512" viewBox="0 0 512 512" width="512" xmlns="http://www.w3.org/2000/svg"><g><g><path d="m265.42 458.94c-1.609-3.863-5.585-6.388-9.771-6.161-4.161.226-7.819 3.105-9.029 7.088-1.191 3.919.199 8.347 3.474 10.833 3.385 2.569 8.094 2.725 11.636.379 3.94-2.609 5.476-7.782 3.69-12.139z"/><path d="m502 244.563c5.522 0 10-4.477 10-10v-52.505c0-5.523-4.478-10-10-10h-40.839v-66.051h3.557c5.522 0 10-4.477 10-10v-46.776c0-5.523-4.478-10-10-10h-110.33c-5.522 0-10 4.477-10 10v46.775c0 5.523 4.478 10 10 10h3.556v66.051h-50.334v-66.051h3.556c5.522 0 10-4.477 10-10v-46.775c0-5.523-4.478-10-10-10h-110.33c-5.523 0-10 4.477-10 10v46.775c0 5.523 4.477 10 10 10h3.556v66.051h-50.334v-66.051h3.556c5.523 0 10-4.477 10-10v-46.775c0-5.523-4.477-10-10-10h-110.331c-5.523 0-10 4.477-10 10v46.775c0 5.523 4.477 10 10 10h3.556v66.051h-40.839c-5.523 0-10 4.477-10 10v52.505c0 5.523 4.477 10 10 10h1.319v152.126c-6.781 4.135-11.319 11.602-11.319 20.109v45.972c0 5.523 4.477 10 10 10h200.794c5.523 0 10-4.477 10-10s-4.477-10-10-10h-190.794v-35.972c0-1.948 1.585-3.533 3.533-3.533h464.934c1.948 0 3.533 1.585 3.533 3.533v35.972h-190.794c-5.522 0-10 4.477-10 10s4.478 10 10 10h200.794c5.522 0 10-4.477 10-10v-45.972c0-8.507-4.537-15.974-11.319-20.109v-152.125zm-137.612-185.332h90.33v26.775h-90.33zm13.555 94.801h32.289c5.522 0 10-4.477 10-10s-4.478-10-10-10h-32.289v-28.026h63.218v66.051h-63.218zm-167.108-94.801h90.33v26.775h-90.33zm13.556 94.801h31.184c5.522 0 10-4.477 10-10s-4.478-10-10-10h-31.184v-28.026h63.219v66.051h-63.219zm-167.108-94.801h90.33v26.775h-90.33zm13.555 94.801h29.289c5.523 0 10-4.477 10-10s-4.477-10-10-10h-29.289v-28.026h63.218v66.051h-63.218zm-50.838 38.026h472v32.505h-472zm357.943 102.815h32.289c5.522 0 10-4.477 10-10s-4.478-10-10-10h-32.289v-30.31h63.218v72.7c0 17.429-14.18 31.609-31.608 31.609-17.43 0-31.609-14.18-31.609-31.609v-22.39zm-153.552 0h31.184c5.522 0 10-4.477 10-10s-4.478-10-10-10h-31.184v-30.31h63.219v72.7c0 17.429-14.18 31.609-31.609 31.609s-31.609-14.18-31.609-31.609v-22.39zm-153.553 0h29.289c5.523 0 10-4.477 10-10s-4.477-10-10-10h-29.289v-30.31h63.218v72.7c0 17.429-14.18 31.609-31.609 31.609-17.43 0-31.609-14.18-31.609-31.609zm409.843 98.391h-449.362v-148.701h19.519v72.7c0 28.457 23.152 51.609 51.609 51.609s51.609-23.152 51.609-51.609v-72.7h50.334v72.7c0 28.457 23.152 51.609 51.609 51.609s51.609-23.152 51.609-51.609v-72.7h50.334v72.7c0 28.457 23.152 51.609 51.609 51.609s51.608-23.152 51.608-51.609v-72.7h19.52v148.701z"/></g></g></svg>