<?xml version="1.0" encoding="iso-8859-1"?>
<!-- Generator: Adobe Illustrator 19.0.0, SVG Export Plug-In . SVG Version: 6.00 Build 0)  -->
<svg version="1.1" id="Capa_1" xmlns="http://www.w3.org/2000/svg" xmlns:xlink="http://www.w3.org/1999/xlink" x="0px" y="0px"
	 viewBox="0 0 501.9 501.9" style="enable-background:new 0 0 501.9 501.9;" xml:space="preserve">
<g>
	<g>
		<path d="M437.8,357.8c-10,0-10,15.6,0,15.6S447.8,357.8,437.8,357.8z"/>
	</g>
</g>
<g>
	<g>
		<path d="M423.8,385.2c-10,0-10,15.6,0,15.6S433.8,385.2,423.8,385.2z"/>
	</g>
</g>
<g>
	<g>
		<path d="M413.8,404.6c-10,0-10,15.6,0,15.6S423.8,404.6,413.8,404.6z"/>
	</g>
</g>
<g>
	<g>
		<path d="M406.8,331.7c-9,0-10,13.7-1.8,15.4c0.6,0.1,1.8,0.2,1.8,0.2C416.8,347.3,417.8,331.7,406.8,331.7z"/>
	</g>
</g>
<g>
	<g>
		<path d="M404.8,361.1c-6,0-8.1,4.9-7.4,9.2c0.5,3.4,2.4,6.4,7.4,6.4C414.8,376.7,414.8,361.1,404.8,361.1z"/>
	</g>
</g>
<g>
	<g>
		<path d="M393.8,401.4c-1.1,0-2.2,0.2-3.3,0.6c-6.5,3-5.4,14.8,3.3,14.8C403.8,416.8,403.8,401.4,393.8,401.4z"/>
	</g>
</g>
<g>
	<g>
		<path d="M394.8,431.2c-2.1,0-4.2,0.9-5.7,2.4c-3.7,4.4-1.3,13.1,5.7,13.1C404.8,446.8,404.8,431.2,394.8,431.2z"/>
	</g>
</g>
<g>
	<g>
		<path d="M370.2,418.9c-6.9,0-9.1,7.4-6.5,11.9c1.3,2.4,3.8,3.8,6.5,3.7c1.6,0,3.3-0.5,4.6-1.5
			C379.9,429.2,378.4,418.9,370.2,418.9z"/>
	</g>
</g>
<g>
	<g>
		<path d="M134.8,139.3c-4.4,0-8,3.6-8,8v4.4c0.1,5.2-4,9.4-9.2,9.6h-0.1c-5.3,0-9.6-4.3-9.7-9.6v-4.4c0-4.4-3.6-8-8-8
			c-4.4,0-8,3.6-8,8v4.4c0.1,6.8,2.8,13.3,7.7,18.1c4.7,4.8,11.2,7.5,17.9,7.5c14.1,0,25.4-11.4,25.4-25.6v-4.4
			C142.8,142.9,139.2,139.3,134.8,139.3z"/>
	</g>
</g>
<g>
	<g>
		<path d="M222.8,139.4c-4.4,0-8,3.6-8,8v4.4c0,5.2-4.3,9.5-9.5,9.5c-5.2,0-9.5-4.3-9.5-9.5v-4.4c0-4.4-3.6-8-8-8c-4.4,0-8,3.6-8,8
			v4.4c0,14.1,11.5,25.5,25.6,25.5c14.1,0,25.5-11.5,25.4-25.5v-4.4C230.8,143,227.2,139.4,222.8,139.4z"/>
	</g>
</g>
<g>
	<g>
		<path d="M387.2,264.9c-0.9-0.1-1.8-0.1-2.6-0.1c-9.8,0-19.6,1.2-29.1,3.6c-25.7,6.5-48.4,21.5-64.3,42.7
			c-12.5-8-27-12.3-41.8-12.3h-42.6v-14c18.3-8.2,34-21.1,45.5-37.5c11.6-16.5,18.5-35.8,19.9-55.9c0.2,0,0.3,0,0.5,0
			c15.8,0,28.6-12.8,28.6-28.6c0-7.6-3-14.8-8.4-20.2c-5.3-5.4-12.5-8.4-20-8.4c-0.1,0-0.1,0-0.1,0V88.8h16.4c4.4,0,8-3.6,8-8
			c-0.1-43-34.9-77.9-78-78h-72c-11.4-0.1-22.3,4.4-30.4,12.5c-2.2,2.2-4.2,4.6-5.8,7.3C84.6,23.8,69.7,38.5,61.8,51
			c-5.5,8.7-9.2,18.4-10.9,28.5c0,0.4,0,0.7,0,1.1v53.8h-0.2c-15.8,0-28.6,12.8-28.6,28.6s12.8,28.6,28.6,28.6c0.2,0,0.3,0,0.5,0
			c3.1,42.5,30.2,79.4,69.8,95.1v12.1H78.5C35.3,298.8,0,334.4,0,377.5v97.9c0.1,4.5,3.6,8.2,8.2,8.4h315.5c0.7-0.1,1.5-0.2,2.2-0.5
			c17.9,10.4,38.2,15.9,58.9,15.8c64.6,0,117.1-52.6,117.1-117.1C501.6,318.3,450.8,266.3,387.2,264.9z M50.8,175.4h-0.2
			c-6.9,0-12.6-5.6-12.6-12.5c0-3.3,1.3-6.6,3.7-8.9c2.4-2.4,5.6-3.7,8.9-3.7c0.1,0,0.2,0,0.2,0V175.4z M299.9,326.7
			c11.8-18.2,29.2-32.1,49.5-39.6l-2.1,17.3c-1.4,8.6-0.9,17.3,1.5,25.7c3,10.2,8.1,17.6,15.2,22.2c4.8,3.8,8.9,9.1,13.2,21.5
			c0.1,0.8,0.1,1.7,0.1,2.6c0,5.5-2.3,10.5-6.9,14.9c-1.3,1.3-2.7,2.4-4.2,3.4c-4.4,3-12.5,3.4-21.1,3.9c-1.9,0.1-3.8,0.2-5.7,0.2
			h-0.8c-16.8,0-37.4,7.8-44.2,28.8C278.1,395.4,280.1,356.9,299.9,326.7z M272.9,150.3c3.3,0,6.5,1.3,8.8,3.7
			c4.9,5,4.8,12.9-0.2,17.8c-2.3,2.3-5.4,3.6-8.6,3.6c-0.1,0-0.1,0-0.1,0L272.9,150.3z M122.9,33.9c1.3-2.8,3.1-5.2,5.2-7.3
			c5.1-5,11.9-7.9,19.1-7.8h72c31.2-0.2,57.6,23,61.5,54H147.2c-0.3,0-0.5-0.1-0.8-0.1c-0.3,0-0.5-0.1-0.8-0.1
			c-14.3-0.8-25.4-12.6-25.4-26.9C120.2,41.6,121.1,37.6,122.9,33.9z M66.8,81.2c1-4.6,7.2-36.2,37.9-41.9c-3,19.5,7.8,38.5,26.1,46
			c-24.4,26-52,29.3-64,29.2V81.2z M94.6,250.6c-17.9-17.8-27.9-42-27.8-67.2v-52.6c16.8,0,52.7-5,82.2-42h107.8v94.6
			c-0.2,39.6-24.7,74.9-61.8,88.9c-20.4,7.6-42.8,8-63.4,1.1C117.7,268.8,105,260.9,94.6,250.6z M153.8,467.8L153.8,467.8h-138
			v-90.3c0.1-33.1,26-60.4,59-62.2v21.5c-7.4,1.5-14.3,5.2-19.5,10.7c-7.4,7.4-11.6,17.5-11.5,28v44.1c0,4.4,3.2,8.2,7.6,8.2H64
			c4.4,0,8-3.6,8-8c0-4.4-3.6-8-8-8h-4.2v-36.3c-0.1-6.2,2.3-12.3,6.7-16.7c4.2-4.4,10-6.9,16.1-7h0.3c13.1,0.1,23.7,10.6,23.9,23.7
			v36.3h-8.1c-4.4,0-8,3.6-8,8c0,4.4,3.6,8,8,8h15.8c4.5-0.1,8.2-3.7,8.3-8.2v-44.1c-0.1-18.9-13.5-35.1-32-38.8v-21.9h34.5
			l28.5,30.8V467.8z M136.8,304.1v-12.6c8.2,1.9,16.5,2.9,24.9,2.9c9.8,0,19.6-1.3,29.1-3.9v13.4l-28.2,27.2L136.8,304.1z
			 M169.8,467.8v-122l32.1-31h14.9V357c-14.3,3.6-24.4,16.5-24.5,31.3c0.1,17.8,14.7,32.1,32.5,32c17.8-0.1,32.1-14.7,32-32.5
			c-0.1-8.4-3.4-16.4-9.3-22.4c-4.1-4-9.1-6.9-14.7-8.5v-42.1h16.5c11.7,0,23.2,3.4,33.1,9.7c-22.4,40-19.4,89.4,7.7,126.4
			c0.5,1.5,1.5,2.8,2.7,3.9c3.6,4.6,7.5,9,11.7,13H169.8z M224.4,372c4.3,0,8.5,1.7,11.6,4.8c6.3,6.4,6.3,16.6,0,23
			c-6.4,6.4-16.7,6.4-23.1,0c-6.4-6.4-6.4-16.7,0-23.1C215.9,373.7,220.1,372,224.4,372z M315.6,443.9l-1.6,10.4
			c-2.7-2.6-5.3-5.4-7.7-8.4l2-7.8c0.1-0.3,0.1-0.7,0.2-1c3.1-20.6,23.8-22.4,30.1-22.4h1.1c0.2,0,0.4,0.2,0.6,0.1
			c2-0.1,3.9-0.2,5.8-0.3c10.9-0.7,21.2-1.3,29.2-6.8c2.2-1.5,4.3-3.2,6.2-5c7.7-7.4,11.8-16.5,11.8-26.5c0-1.8-0.1-3.7-0.4-5.5
			c-0.1-0.5-0.2-0.9-0.3-1.4c-4.8-14.5-10.4-23.2-19-30c-0.2-0.2-0.4-0.3-0.7-0.5c-3.9-2.4-6.8-7-8.8-13.5c-1.7-6.1-2.1-12.6-1-18.9
			c0-0.1,0-0.2,0-0.2l2.9-23.9c4.2-0.8,8.4-1.3,12.7-1.5v8c-2,11.4,0.4,20.5,5.9,27c5.1,6,12.7,8.8,22.5,8.8h0.9
			c0.1,0,0.2,0.2,0.2,0.2c4,0,8.3,1.7,13.6,4.2c23.4,10.9,33.5,38.7,22.6,62.1l-17.6,34.5c-6.2,12.1-17.2,21.2-30.2,25.1
			c-4.2,1.3-8.6,2-13,2.1h-1c-9.2-0.1-17.5-5.7-20.9-14.2c-3.2-7.9-10.3-13.6-18.7-14.9C329.9,421.8,317.6,430.8,315.6,443.9z
			 M455,454.2c-18.6,18.4-44,28.8-70.5,28.8c-20,0-39.6-5.9-56.2-17.1c0.2-0.5,0.3-1.1,0.4-1.6l2.7-17.9c0.7-4.4,4.8-7.4,9.2-6.8
			c1.4,0.2,2.6,0.8,3.7,1.6l0.1,0.1c1.1,0.8,1.9,1.9,2.4,3.2c5.9,14.6,20,24.2,35.8,24.3h1.1c0.1,0,0.2,0,0.2,0
			c5.8-0.2,11.6-1.1,17.2-2.8c17.2-5.1,31.6-17.1,39.8-33l17.9-34.5c0.1-0.1,0.1-0.2,0.1-0.3c14.7-31.5,1.1-68.8-30.3-83.6
			c-6.4-3-13.4-5.8-20.9-5.8H407c-5,0-8.5-1-10.4-3.2c-2.4-2.9-3.2-8.1-2.2-14.8c0.1-0.4,0.1-0.8,0.1-1.1v-8.2
			c23.5,2.4,45.4,13,61.9,29.8C495.5,351.2,494.8,415.1,455,454.2z"/>
	</g>
</g>
<g>
</g>
<g>
</g>
<g>
</g>
<g>
</g>
<g>
</g>
<g>
</g>
<g>
</g>
<g>
</g>
<g>
</g>
<g>
</g>
<g>
</g>
<g>
</g>
<g>
</g>
<g>
</g>
<g>
</g>
</svg>
