<?xml version="1.0" encoding="iso-8859-1"?>
<!-- Generator: Adobe Illustrator 19.0.0, SVG Export Plug-In . SVG Version: 6.00 Build 0)  -->
<svg version="1.1" id="Capa_1" xmlns="http://www.w3.org/2000/svg" xmlns:xlink="http://www.w3.org/1999/xlink" x="0px" y="0px"
	 viewBox="0 0 480 480" style="enable-background:new 0 0 480 480;" xml:space="preserve">
<g>
	<g>
		<polygon points="248,48 248,32 232,32 232,48 216,48 216,64 232,64 232,80 248,80 248,64 264,64 264,48 		"/>
	</g>
</g>
<g>
	<g>
		<path d="M472,248c-9,0-17.313,2.984-24,8.016V216c0-13.234-10.766-24-24-24c-3.117,0-6.102,0.602-8.844,1.688
			C412.383,183.508,403.047,176,392,176s-20.383,7.508-23.156,17.688C366.102,192.602,363.117,192,360,192
			c-11.047,0-20.383,7.508-23.156,17.688C334.102,208.602,331.117,208,328,208c-13.234,0-24,10.766-24,24v21.755l-16-4.005v-31.231
			c18.885-9.011,32-28.239,32-50.519v-8c17.648,0,32-14.352,32-32s-14.352-32-32-32V56c0-30.875-25.125-56-56-56h-48
			c-30.875,0-56,25.125-56,56v40c-17.648,0-32,14.352-32,32s14.352,32,32,32v8c0,22.279,13.115,41.507,32,50.519v31.231l-16,4.005
			V232c0-13.234-10.766-24-24-24c-3.117,0-6.102,0.602-8.844,1.688C140.383,199.508,131.047,192,120,192
			c-3.117,0-6.102,0.602-8.844,1.688C108.383,183.508,99.047,176,88,176s-20.383,7.508-23.156,17.688
			C62.102,192.602,59.117,192,56,192c-13.234,0-24,10.766-24,24v40.016C25.313,250.984,17,248,8,248c-4.422,0-8,3.578-8,8v56
			c0,2.125,0.844,4.156,2.344,5.656L32,347.313V432c0,4.422,3.578,8,8,8v40h16v-40h96v40h16v-40c4.422,0,8-3.578,8-8V270.242
			L200.969,264h78.063L304,270.242V432c0,4.422,3.578,8,8,8v40h16v-40h96v40h16v-40c4.422,0,8-3.578,8-8v-84.688l29.656-29.656
			c1.5-1.5,2.344-3.531,2.344-5.656v-56C480,251.578,476.422,248,472,248z M320,112c8.82,0,16,7.18,16,16s-7.18,16-16,16V112z
			 M160,144c-8.82,0-16-7.18-16-16s7.18-16,16-16V144z M160,424H48v-80c0-2.125-0.844-4.156-2.344-5.656L16,308.688v-43.32
			c9.313,3.305,16,12.203,16,22.633v8c0,4.422,3.578,8,8,8s8-3.578,8-8v-80c0-4.414,3.586-8,8-8s8,3.586,8,8v48c0,4.422,3.578,8,8,8
			s8-3.578,8-8v-64c0-4.414,3.586-8,8-8s8,3.586,8,8v64c0,4.422,3.578,8,8,8s8-3.578,8-8v-48c0-4.414,3.586-8,8-8s8,3.586,8,8v48
			c0,4.422,3.578,8,8,8s8-3.578,8-8v-32c0-4.414,3.586-8,8-8s8,3.586,8,8V424z M176,56c0-22.055,17.945-40,40-40h48
			c22.055,0,40,17.945,40,40v40H176V56z M176,112h128v30.024l-62.266-13.837c-1.141-0.25-2.328-0.25-3.469,0L176,142.024V112z
			 M272,248h-64v-24.639c2.62,0.377,5.277,0.639,8,0.639h48c2.723,0,5.38-0.262,8-0.639V248z M264,208h-48
			c-22.055,0-40-17.945-40-40v-9.586l64-14.219l64,14.219V168C304,190.055,286.055,208,264,208z M464,308.688l-29.656,29.656
			c-1.5,1.5-2.344,3.531-2.344,5.656v80H320V232c0-4.414,3.586-8,8-8s8,3.586,8,8v32c0,4.422,3.578,8,8,8s8-3.578,8-8v-48
			c0-4.414,3.586-8,8-8s8,3.586,8,8v48c0,4.422,3.578,8,8,8s8-3.578,8-8v-64c0-4.414,3.586-8,8-8s8,3.586,8,8v64
			c0,4.422,3.578,8,8,8s8-3.578,8-8v-48c0-4.414,3.586-8,8-8s8,3.586,8,8v80c0,4.422,3.578,8,8,8s8-3.578,8-8v-8
			c0-10.43,6.688-19.328,16-22.633V308.688z"/>
	</g>
</g>
<g>
</g>
<g>
</g>
<g>
</g>
<g>
</g>
<g>
</g>
<g>
</g>
<g>
</g>
<g>
</g>
<g>
</g>
<g>
</g>
<g>
</g>
<g>
</g>
<g>
</g>
<g>
</g>
<g>
</g>
</svg>
